HIERARCHY
ROOT Hips
{
	OFFSET 0.000000 0.000000 0.000000
	CHANNELS 6 Xposition Yposition Zposition Xrotation Yrotation Zrotation
	JOINT LeftUpLeg_virtual
	{
		OFFSET 0.000000 0.000000 0.000000
		CHANNELS 3 Xrotation Yrotation Zrotation
		JOINT LeftUpLeg
		{
			OFFSET 10.205400 -3.823500 0.155100
			CHANNELS 3 Xrotation Yrotation Zrotation
			JOINT LeftLeg
			{
				OFFSET 0.708757 -12.982077 0.567790
				CHANNELS 3 Xrotation Yrotation Zrotation
				JOINT LeftFoot
				{
					OFFSET -0.708756 -10.717838 -2.184338
					CHANNELS 3 Xrotation Yrotation Zrotation
					JOINT LeftToeBase
					{
						OFFSET 0.108149 -7.191104 7.560241
						CHANNELS 3 Xrotation Yrotation Zrotation
						JOINT LeftToe_End
						{
							OFFSET 0.070230 0.081724 4.490308
							CHANNELS 3 Xrotation Yrotation Zrotation
							End Site
							{
								OFFSET 0 0 0
							}
						}
					}
				}
			}
		}
	}
	JOINT RightUpLeg_virtual
	{
		OFFSET 0.000000 0.000000 0.000000
		CHANNELS 3 Xrotation Yrotation Zrotation
		JOINT RightUpLeg
		{
			OFFSET -10.205400 -3.823500 0.005500
			CHANNELS 3 Xrotation Yrotation Zrotation
			JOINT RightLeg
			{
				OFFSET -0.708756 -12.982134 0.610632
				CHANNELS 3 Xrotation Yrotation Zrotation
				JOINT RightFoot
				{
					OFFSET 0.708754 -10.717769 -1.945823
					CHANNELS 3 Xrotation Yrotation Zrotation
					JOINT RightToeBase
					{
						OFFSET -0.108140 -7.191069 7.372968
						CHANNELS 3 Xrotation Yrotation Zrotation
						JOINT RightToe_End
						{
							OFFSET -0.070227 0.081735 4.479403
							CHANNELS 3 Xrotation Yrotation Zrotation
							End Site
							{
								OFFSET 0 0 0
							}
						}
					}
				}
			}
		}
	}
	JOINT Spine_virtual
	{
		OFFSET 0.000000 0.000000 0.000000
		CHANNELS 3 Xrotation Yrotation Zrotation
		JOINT Spine
		{
			OFFSET 0.000000 6.876099 0.125700
			CHANNELS 3 Xrotation Yrotation Zrotation
			JOINT Spine1
			{
				OFFSET 0.000000 5.730043 0.104720
				CHANNELS 3 Xrotation Yrotation Zrotation
				JOINT Spine1_split
				{
					OFFSET 0.000000 5.730043 0.104720
					CHANNELS 3 Xrotation Yrotation Zrotation
					JOINT Spine2
					{
						OFFSET 0.000000 5.730043 0.104720
						CHANNELS 3 Xrotation Yrotation Zrotation
						JOINT Neck_virtual
						{
							OFFSET 0.000000 0.000000 0.000000
							CHANNELS 3 Xrotation Yrotation Zrotation
							JOINT Neck
							{
								OFFSET 0.000000 10.314075 0.188496
								CHANNELS 3 Xrotation Yrotation Zrotation
								JOINT Head
								{
									OFFSET 0.000000 7.643700 -2.377400
									CHANNELS 3 Xrotation Yrotation Zrotation
									JOINT HeadTop_End
									{
										OFFSET 0.000000 43.788605 -13.619600
										CHANNELS 3 Xrotation Yrotation Zrotation
										End Site
										{
											OFFSET 0 0 0
										}
									}
								}
							}
						}
						JOINT LeftShoulder_virtual
						{
							OFFSET 0.000000 0.000000 0.000000
							CHANNELS 3 Xrotation Yrotation Zrotation
							JOINT LeftShoulder
							{
								OFFSET 2.196100 4.412489 0.087492
								CHANNELS 3 Xrotation Yrotation Zrotation
								JOINT LeftShoulder_split
								{
									OFFSET 2.196100 4.412489 0.087492
									CHANNELS 3 Xrotation Yrotation Zrotation
									JOINT LeftArm
									{
										OFFSET 8.771219 -2.981674 -0.026999
										CHANNELS 3 Xrotation Yrotation Zrotation
										JOINT LeftForeArm
										{
											OFFSET 8.512804 0.000000 -0.000000
											CHANNELS 3 Xrotation Yrotation Zrotation
											JOINT LeftHand
											{
												OFFSET 18.484802 0.000000 -0.000000
												CHANNELS 3 Xrotation Yrotation Zrotation
												End Site
												{
													OFFSET 0 0 0
												}
											}
										}
									}
								}
							}
						}
						JOINT RightShoulder_virtual
						{
							OFFSET 0.000000 0.000000 0.000000
							CHANNELS 3 Xrotation Yrotation Zrotation
							JOINT RightShoulder
							{
								OFFSET -2.196100 4.412496 0.070690
								CHANNELS 3 Xrotation Yrotation Zrotation
								JOINT RightShoulder_split
								{
									OFFSET -2.196100 4.412496 0.070690
									CHANNELS 3 Xrotation Yrotation Zrotation
									JOINT RightArm
									{
										OFFSET -8.771282 -2.981682 -0.094208
										CHANNELS 3 Xrotation Yrotation Zrotation
										JOINT RightForeArm
										{
											OFFSET -8.494598 0.000000 0.000000
											CHANNELS 3 Xrotation Yrotation Zrotation
											JOINT RightHand
											{
												OFFSET -18.483803 0.000000 0.000001
												CHANNELS 3 Xrotation Yrotation Zrotation
												End Site
												{
													OFFSET 0 0 0
												}
											}
										}
									}
								}
							}
						}
					}
				}
			}
		}
	}
}
MOTION
Frames: 6
Frame Time: 0.03333333
-0.892012 26.688229 -2.077194 0.000000 0.000000 0.000000 -1.252622 8.767846 -14.057687 -69.644618 10.115309 24.974839 102.542989 -17.735684 -7.328312 24.707815 -13.120384 40.705995 -42.547700 -6.151721 0.868801 0.000000 0.000000 0.000000 -11.867239 2.950237 -12.141619 -5.932475 -19.668216 -15.356181 55.060884 8.385697 6.372943 -41.025347 -5.592988 9.714885 9.502015 22.649134 -50.293186 0.000000 0.000000 0.000000 -7.877348 4.823506 -11.300047 14.092383 -0.198950 -4.743843 -4.589613 2.216934 4.006360 0.049172 0.338379 -0.272909 0.000000 0.000000 0.000000 -5.725567 5.522861 4.062988 11.732593 1.221298 3.837950 -52.932549 -45.928022 -53.572063 0.000000 0.000000 0.000000 -6.901951 4.052407 0.657852 4.199835 -3.486378 -10.135001 11.480546 -3.178250 4.793460 73.475487 -7.951384 -35.062059 -1.713720 -51.465318 -1.696248 0.000000 0.000000 0.000000 -3.566217 5.595830 3.618508 -3.544908 -23.739186 18.148265 15.743050 3.431177 7.616060 8.593263 13.736006 26.202016 -24.120675 61.907312 22.409116 0.000000 0.000000 0.000000 
-0.674504 26.934193 3.779322 0.000000 0.000000 0.000000 -3.015817 4.396241 -14.494889 -75.981278 13.930258 25.990499 80.144183 -11.042182 -15.299292 19.773097 -13.132346 42.943124 -36.071161 -5.608538 1.107422 0.000000 0.000000 0.000000 -10.631685 -1.820337 -12.918348 -1.402625 -18.893294 -16.185475 46.303895 8.061902 8.643172 -27.150328 -4.549347 14.957267 8.238190 23.680107 -49.604864 0.000000 0.000000 0.000000 -6.354899 2.695414 -13.254048 12.543659 1.466839 -4.229368 -4.159875 2.646280 4.133179 0.080206 0.631256 -0.095155 0.000000 0.000000 0.000000 -5.925791 5.974547 4.051698 13.028688 0.637194 3.405473 -54.578088 -43.681105 -52.483734 0.000000 0.000000 0.000000 -6.820559 4.567646 0.821741 4.687931 -1.879607 -9.251928 11.250507 -1.347263 3.193370 76.971417 -4.123366 -34.111368 -2.893948 -51.697114 -3.653291 0.000000 0.000000 0.000000 -4.505934 6.081989 3.341049 -4.460303 -20.470673 17.251994 12.258396 5.612414 3.905381 2.642483 24.688178 26.224744 -40.809813 73.510362 38.106237 0.000000 0.000000 0.000000 
-0.298600 27.175554 10.656507 0.000000 0.000000 0.000000 -3.662692 0.244103 -14.063604 -79.428584 16.261892 22.934455 55.796867 0.659907 -17.272000 16.243064 -13.218868 41.798842 -26.252013 -6.062293 4.649988 0.000000 0.000000 0.000000 -6.904211 -3.107117 -12.814462 4.924030 -12.396648 -17.773021 39.276081 9.521186 9.131827 -2.653971 0.267571 27.708795 -6.271884 26.072362 -37.365841 0.000000 0.000000 0.000000 -4.800465 0.403743 -14.475713 10.393495 3.480386 -2.790332 -3.845653 3.190102 3.772986 0.155364 0.722865 0.035383 0.000000 0.000000 0.000000 -6.154357 6.759332 3.319576 13.643104 -0.510845 3.569811 -56.116366 -40.890515 -52.721144 0.000000 0.000000 0.000000 -6.989669 5.467077 0.482725 5.277066 0.348900 -9.175945 10.236972 -1.623208 2.881590 79.890421 -0.524788 -35.435520 -5.336598 -52.283766 -6.721232 0.000000 0.000000 0.000000 -5.391556 6.887567 2.494469 -5.029836 -15.954166 16.215699 13.079616 2.759356 0.515844 -2.690520 38.117394 27.893200 -83.165271 81.776052 79.377262 0.000000 0.000000 0.000000 
0.636238 27.157730 17.568975 0.000000 0.000000 0.000000 -3.277073 -2.059649 -12.978150 -80.813371 16.225012 15.670952 40.007864 9.432150 -12.478681 19.129336 -12.490373 37.255427 -17.827069 -6.741900 10.932387 0.000000 0.000000 0.000000 -1.662225 -1.422948 -12.341357 12.229532 -2.443779 -19.260575 37.124510 9.782293 8.127333 17.183238 5.041341 34.394493 -26.355062 21.487449 -16.262296 0.000000 0.000000 0.000000 -4.511242 -0.213385 -14.585828 8.049270 4.907534 -0.955339 -3.740712 3.437046 3.048160 0.254086 0.598954 0.031827 0.000000 0.000000 0.000000 -6.281077 7.387713 2.126646 13.747085 -1.635069 3.826661 -56.379113 -38.232247 -54.139457 0.000000 0.000000 0.000000 -7.218669 6.180324 -0.277934 5.912253 2.226868 -10.041045 9.437641 -3.229246 2.801987 80.053785 1.879848 -37.988040 -8.520153 -52.607958 -9.920628 0.000000 0.000000 0.000000 -5.999809 7.439692 1.322434 -5.073956 -11.229543 15.572623 17.495707 -2.891134 0.096596 -4.996128 48.435624 30.823947 -138.940637 83.590382 134.265386 0.000000 0.000000 0.000000 
1.924973 26.959261 24.708355 0.000000 0.000000 0.000000 -2.230644 -3.048005 -10.851846 -81.824990 16.121910 6.871315 36.356574 13.756739 -5.750316 26.963855 -11.019357 30.447959 -14.272565 -7.187103 18.074159 0.000000 0.000000 0.000000 3.357879 0.636429 -11.745082 16.733764 7.981932 -18.640792 41.465901 3.345809 6.389264 24.094775 -1.108085 30.345185 -37.822842 8.874218 2.574458 0.000000 0.000000 0.000000 -4.317631 1.810764 -13.419483 5.800362 5.055060 0.810760 -3.759229 3.193187 2.111494 0.141000 0.647805 0.064316 0.000000 0.000000 0.000000 -6.417606 7.387703 0.800725 13.409276 -2.535741 3.501900 -53.532588 -36.382857 -56.779048 0.000000 0.000000 0.000000 -7.343846 6.162598 -1.225384 6.483168 3.004767 -11.564638 9.216076 -5.427330 2.502890 75.469895 3.011505 -40.354762 -11.066918 -51.354703 -11.715014 0.000000 0.000000 0.000000 -6.329569 7.228884 0.115043 -4.449643 -7.017559 15.655746 21.355676 -7.080011 2.413687 -1.823769 52.822224 32.887330 174.038138 86.354819 -179.113583 0.000000 0.000000 0.000000 
3.458892 26.568827 31.682156 0.000000 0.000000 0.000000 -0.929031 -4.437830 -8.210928 -75.899309 19.978034 -3.766721 39.944169 19.963736 0.027728 27.315948 -7.463834 29.334839 -14.850535 -7.571564 22.803604 0.000000 0.000000 0.000000 5.750241 2.565273 -10.862250 13.222957 16.435112 -14.753081 54.089866 -8.994939 6.689004 16.473154 -15.855198 18.243379 -38.108713 -3.209213 14.601240 0.000000 0.000000 0.000000 -4.264713 4.797008 -10.976521 3.688019 3.482598 1.743287 -3.908182 2.278428 1.052354 -0.010707 0.660616 -0.052034 0.000000 0.000000 0.000000 -6.776325 6.535660 -0.406987 12.898126 -2.715184 2.020473 -44.884954 -35.409080 -59.806844 0.000000 0.000000 0.000000 -7.188248 5.187256 -2.049872 6.898757 2.272377 -13.079878 8.526021 -7.990026 1.282743 64.599540 3.456230 -41.703322 -12.572415 -48.167614 -11.513093 0.000000 0.000000 0.000000 -6.389699 6.018833 -0.851063 -3.292523 -4.002854 16.296345 22.433037 -8.938369 5.713515 7.343892 50.669021 33.184751 56.244463 84.165880 -61.058763 0.000000 0.000000 0.000000 
